{"glyphs":{":":{"x_min":0,"x_max":151,"ha":151,"o":"m 32 -10 q -5 -10 2 21 q 8 51 -3 88 q 8 101 33 96 q 58 92 93 105 l 145 39 l 128 9 q 116 -5 91 0 q 67 4 32 -10 z m 32 417 l -3 448 l -3 514 l 32 547 q 42 547 66 545 q 91 542 128 531 l 145 498 l 112 432 z"},"$":{"x_min":0,"x_max":418,"ha":418,"o":"m 187 -27 q 158 21 121 80 q 83 140 -1 150 q -19 177 -10 208 q -1 238 -1 274 l 21 288 q 71 288 115 245 q 158 203 226 212 q 244 223 256 235 q 269 247 288 274 l 288 301 q 273 344 228 360 q 183 376 135 391 q 86 407 49 435 q 11 462 11 529 q 11 603 68 638 q 125 674 163 742 q 180 761 239 742 q 248 718 274 702 q 301 686 327 667 q 353 647 370 621 q 387 595 376 553 l 351 529 q 304 529 275 554 q 247 580 201 591 q 181 591 157 581 q 133 570 125 553 l 125 502 q 148 474 185 464 q 222 455 260 445 q 299 436 334 417 q 370 398 390 352 q 399 290 377 242 q 355 195 321 152 q 287 110 248 67 q 210 25 187 -27 z"},"?":{"x_min":0,"x_max":546,"ha":546,"o":"m 215 -20 l 185 45 l 248 77 l 296 28 q 296 6 268 -7 q 239 -20 215 -20 z m 215 239 l 185 269 q 185 317 212 344 q 240 370 274 391 q 308 412 339 437 q 370 462 377 509 l 377 542 q 363 590 311 615 q 260 639 201 639 q 151 628 122 578 q 94 528 21 528 q 10 552 -3 585 q -17 618 7 655 q 54 728 141 740 q 228 752 310 752 q 386 728 428 688 q 470 647 506 576 q 506 564 508 540 q 510 516 521 479 q 474 395 405 322 q 336 249 215 239 z"},"<":{"x_min":0,"x_max":584,"ha":584,"o":"m 55 313 l 55 395 l 529 595 l 529 508 l 153 354 l 529 198 l 529 110 z"},"'":{"x_min":0,"x_max":68,"ha":68,"o":"m 16 519 q 0 563 -3 621 q -6 679 -6 733 q 9 749 65 733 q 65 687 63 612 q 61 536 16 519 z"},"=":{"x_min":0,"x_max":584,"ha":584,"o":"m 528 421 l 56 421 l 56 503 l 528 503 z m 528 204 l 56 204 l 56 286 l 528 286 z"},"a":{"x_min":0,"x_max":649,"ha":649,"o":"m 135 -19 q 86 -8 57 25 q 29 58 5 108 q 5 181 64 227 q 124 273 197 284 q 233 298 292 310 q 352 322 378 381 l 359 414 q 309 438 251 428 q 193 418 135 433 l 135 479 q 208 527 281 524 q 354 521 438 495 q 523 458 529 366 q 535 273 535 187 q 535 142 564 115 q 592 87 619 27 q 532 -7 401 -8 q 270 -8 148 -19 z m 232 76 l 246 76 q 280 76 322 103 q 364 130 378 141 l 359 205 q 309 205 271 203 q 233 200 197 187 l 167 126 z"},"L":{"x_min":0,"x_max":665,"ha":665,"o":"m 103 -17 q 90 6 63 -1 q 37 -9 0 14 q -14 65 38 85 q 90 104 103 169 q 126 298 102 449 q 77 600 0 714 q 77 742 168 745 q 258 749 327 700 q 269 667 242 612 q 215 557 207 491 q 199 426 201 355 q 204 285 204 221 q 204 182 229 136 q 253 91 307 66 q 345 66 409 75 q 473 83 513 137 q 526 161 536 201 q 547 241 597 252 q 633 204 626 159 q 618 114 631 48 l 545 -17 q 444 -17 331 -17 q 217 -17 103 -17 z"},"3":{"x_min":0,"x_max":527,"ha":527,"o":"m 72 -7 q 49 2 34 19 q 20 36 -5 71 q 41 77 99 68 q 157 59 215 59 q 273 59 325 78 q 377 98 413 162 q 413 232 347 283 q 281 335 212 347 q 189 373 212 442 q 222 432 246 450 q 270 469 304 458 q 329 469 344 484 q 359 498 381 533 q 381 580 349 624 q 317 667 259 689 q 212 689 171 666 q 130 642 72 642 q 49 655 61 676 q 72 696 72 718 q 166 743 283 745 q 400 748 457 642 q 457 539 450 432 q 443 325 490 208 q 502 138 459 90 q 417 41 337 6 q 278 -17 218 -7 q 157 2 85 -7 z"},";":{"x_min":0,"x_max":209,"ha":209,"o":"m 4 -88 q -20 -42 1 12 q 21 66 33 124 q 46 135 68 131 q 90 127 125 139 q 137 83 98 15 q 60 -54 4 -88 z m 94 385 l 63 414 l 63 475 l 125 523 l 187 506 q 196 494 193 471 q 189 448 200 414 q 200 380 171 388 q 142 395 107 385 z"},"J":{"x_min":0,"x_max":677,"ha":677,"o":"m 129 -13 q 81 0 40 45 q 0 90 0 153 q 0 167 0 191 q 0 215 0 255 l 51 286 q 74 223 93 155 q 111 86 198 86 q 235 51 296 84 q 357 117 395 153 q 432 252 426 362 q 420 472 395 583 q 382 620 332 630 q 281 641 231 668 l 231 699 q 331 749 423 735 q 515 721 628 729 l 645 668 q 605 655 579 636 q 552 616 526 568 q 508 505 513 431 q 518 356 516 281 q 515 207 492 139 q 469 71 395 22 q 334 -16 270 -8 q 206 0 129 -13 z"},"V":{"x_min":0,"x_max":847,"ha":847,"o":"m 377 -19 q 310 55 268 148 q 226 242 188 339 q 149 436 104 529 q 59 622 -14 696 q 24 750 96 756 q 168 763 238 750 q 208 628 240 468 q 272 307 377 215 l 452 233 q 472 285 506 341 q 540 397 563 456 q 587 514 587 574 q 587 635 539 696 l 560 729 q 613 758 660 746 q 707 734 773 750 l 807 678 q 741 617 701 521 q 662 424 624 322 q 585 220 535 127 q 485 35 397 -19 z"},"\"":{"x_min":0,"x_max":315,"ha":315,"o":"m 32 514 q -7 546 -12 609 q -17 672 -8 733 l 45 758 l 71 747 q 115 641 32 514 z m 234 529 q 225 580 211 633 q 197 686 207 747 q 229 763 291 747 q 300 705 299 627 q 298 550 248 529 z"},"7":{"x_min":0,"x_max":524,"ha":524,"o":"m 224 -17 q 237 122 289 265 q 340 408 379 564 q 379 603 336 635 q 293 667 242 667 q 189 667 128 642 q 67 616 0 616 q -10 626 -6 653 q -3 680 -14 717 q 89 755 230 755 q 371 755 500 717 q 500 551 421 365 q 343 179 293 -2 z"},"S":{"x_min":0,"x_max":635,"ha":635,"o":"m 161 -17 q 137 8 101 0 q 65 -9 27 16 l -6 84 l 27 152 l 61 167 q 104 147 157 119 q 209 90 264 77 q 318 63 371 76 q 423 88 467 152 l 467 218 q 454 245 437 261 q 420 278 382 306 q 331 306 270 323 q 208 341 146 354 q 95 377 67 444 q 40 511 27 573 q 40 649 105 689 q 171 729 246 743 q 400 768 552 692 q 552 679 552 653 q 552 628 552 590 l 501 558 q 450 595 385 646 q 320 697 229 660 q 205 646 187 628 q 169 611 146 573 q 146 535 170 491 q 195 447 246 422 q 335 409 432 381 q 528 353 567 254 q 605 188 570 121 q 535 53 484 16 q 408 -23 332 -14 q 256 -4 178 -17 z"},"}":{"x_min":0,"x_max":210,"ha":210,"o":"m 78 -8 q 50 1 27 -6 q 3 -13 3 15 q 3 43 16 62 q 28 82 28 90 q 45 250 64 412 q 82 575 -10 716 q 0 743 23 741 q 46 739 63 739 q 115 706 129 655 q 143 604 146 549 q 149 495 156 442 q 163 390 201 352 q 158 315 151 266 q 144 218 143 168 q 142 118 133 71 q 124 25 78 -8 z"},"Z":{"x_min":0,"x_max":575,"ha":575,"o":"m 53 -12 q 25 -12 17 17 q 9 46 -14 71 q 11 158 64 218 q 117 277 173 332 q 229 386 275 448 q 322 510 334 604 q 334 639 303 627 q 271 615 234 651 l 167 634 q 129 624 112 596 q 94 569 67 522 l 33 522 q 10 569 10 612 q 10 656 33 721 q 133 758 244 741 q 354 724 466 735 l 516 670 q 484 595 435 535 q 386 476 335 416 q 284 357 238 291 q 192 225 167 138 q 194 87 255 94 q 317 100 365 87 q 430 87 439 141 q 449 194 501 221 l 535 205 q 547 167 545 110 q 542 54 516 4 q 403 4 289 -4 q 176 -12 53 -12 z"},"x":{"x_min":0,"x_max":649,"ha":649,"o":"m 31 -15 l -5 2 q -29 29 -5 104 q 45 128 94 160 q 143 191 181 253 q 186 304 160 333 q 135 363 100 389 q 66 415 34 445 q 2 475 -5 526 q 33 550 73 540 q 113 530 164 541 q 188 530 205 495 q 223 461 246 425 l 314 406 q 339 467 407 510 q 474 554 549 541 l 600 488 q 562 426 508 401 q 454 376 416 287 q 416 200 491 164 q 566 129 619 53 q 593 2 529 -4 q 464 -10 399 2 q 373 2 356 17 q 339 33 314 69 l 314 137 q 263 150 273 105 q 284 61 246 36 q 197 10 153 -2 q 109 -15 45 -15 z"},")":{"x_min":0,"x_max":217,"ha":217,"o":"m 15 -8 l -7 18 q 48 107 62 197 q 76 288 68 378 q 61 469 40 560 q 19 650 4 740 l 55 740 q 166 608 186 442 q 207 275 140 116 q 123 80 97 36 q 71 -8 15 -8 z"},"&":{"x_min":0,"x_max":600,"ha":600,"o":"m 142 -11 q 104 17 59 39 q 14 62 -12 128 q 14 256 59 410 q 104 564 142 682 q 194 759 275 745 q 357 731 438 731 l 470 699 l 455 629 q 416 590 374 607 q 333 625 281 612 q 254 601 242 556 q 229 512 229 473 q 268 448 294 396 q 320 344 385 316 q 424 331 464 355 q 504 379 557 354 q 567 273 550 196 q 532 119 571 41 q 495 -22 379 -10 q 263 3 159 -11 z m 176 145 l 261 162 l 229 232 l 159 247 q 172 209 167 184 q 163 158 176 145 z"},"_":{"x_min":0,"x_max":728,"ha":728,"o":"m 46 -12 q 23 -12 17 11 q 10 35 -9 57 q 157 89 342 103 q 527 116 693 43 q 625 2 547 -5 q 468 -13 384 -10 q 300 -6 214 -2 q 128 3 46 -12 z"},"v":{"x_min":0,"x_max":764,"ha":764,"o":"m 284 -13 q 219 94 154 248 q 88 401 -16 484 l 0 517 q 39 545 81 533 q 124 521 177 535 q 217 516 223 486 q 229 457 224 422 q 219 387 215 348 q 210 309 231 270 q 256 256 279 217 q 302 178 355 163 q 411 163 439 225 q 467 287 480 341 q 454 366 465 405 q 476 443 463 484 q 502 522 595 533 q 688 543 728 463 q 661 438 622 380 q 583 322 552 253 q 520 183 485 112 q 451 41 392 -13 q 376 -13 349 -13 q 322 -13 284 -13 z"},"O":{"x_min":0,"x_max":736,"ha":736,"o":"m 247 -19 q 169 4 106 54 q 42 104 31 182 q -6 269 2 374 q 10 479 46 580 q 96 641 180 700 q 265 759 362 745 q 462 745 538 687 q 613 629 664 532 q 702 392 662 240 q 622 89 496 12 q 448 -23 386 -16 q 325 -8 264 -19 z m 264 96 l 281 96 q 318 96 354 96 q 390 96 415 96 q 476 110 521 178 q 567 247 580 297 q 580 383 550 479 q 519 575 446 613 q 383 625 323 623 q 264 621 213 594 q 152 547 124 469 q 96 392 96 331 q 108 243 148 183 q 188 123 264 96 z"},"(":{"x_min":0,"x_max":211,"ha":211,"o":"m 161 -18 q 46 78 13 219 q -21 361 8 504 q 27 564 53 637 q 80 711 147 750 q 157 760 179 741 q 201 722 201 713 q 93 539 120 362 q 146 186 186 -7 z"},"C":{"x_min":0,"x_max":654,"ha":654,"o":"m 230 -15 q 158 20 92 94 q 25 169 0 278 q 0 401 35 514 q 70 627 181 701 q 280 752 371 727 q 462 701 574 701 l 623 638 q 623 625 621 601 q 618 577 604 542 l 539 525 q 503 560 450 604 q 397 648 313 638 q 251 638 193 595 q 136 551 99 490 q 86 405 92 290 q 98 174 195 114 q 269 40 380 67 q 491 94 588 133 l 604 64 q 544 -9 445 -7 q 345 -4 245 -15 z"},"W":{"x_min":0,"x_max":793,"ha":793,"o":"m 186 -20 q 68 136 51 340 q 34 544 -3 740 q 45 740 109 743 q 172 747 238 706 q 211 653 166 576 q 120 499 186 395 l 218 395 q 246 409 262 451 q 279 493 305 534 l 340 551 l 375 551 q 427 551 444 485 q 461 419 514 395 q 564 409 569 437 q 575 465 601 519 q 601 582 549 615 q 497 647 497 726 q 549 751 594 740 q 640 729 703 740 l 755 688 q 716 617 699 534 q 682 451 670 362 q 659 273 646 181 q 632 89 601 0 q 575 0 531 6 q 488 12 462 49 q 473 62 452 89 q 431 116 444 153 q 431 180 415 197 q 398 213 357 238 q 319 219 306 186 q 293 153 283 116 q 273 79 255 42 q 236 6 186 -20 z"},"A":{"x_min":0,"x_max":732,"ha":732,"o":"m 550 -12 l 480 19 q 457 42 467 78 q 477 114 466 152 q 428 215 362 202 q 295 189 232 200 l 168 119 q 189 94 168 19 q 130 -4 90 5 q 50 14 0 2 q 0 83 41 172 q 82 261 117 351 q 153 442 160 531 q 167 620 99 701 q 161 739 239 739 q 316 739 368 701 q 465 563 526 382 q 586 200 698 50 q 683 -11 641 -11 q 600 -12 550 -12 z m 316 319 l 333 319 q 359 319 379 345 q 399 372 399 386 q 361 422 374 453 q 387 484 349 484 l 316 484 q 289 484 269 457 q 249 430 249 417 l 249 386 q 249 359 276 339 q 303 319 316 319 z"},"f":{"x_min":0,"x_max":531,"ha":531,"o":"m 80 -10 q 66 3 38 12 q 10 20 0 56 q 60 78 99 144 q 139 209 125 293 q 139 351 94 385 q 50 420 14 466 q 44 527 94 588 q 145 648 209 688 q 273 728 349 737 q 424 746 506 704 l 491 674 q 442 674 402 666 q 361 658 301 658 l 253 562 q 279 526 337 531 q 396 536 442 500 l 442 466 q 406 432 362 438 q 317 444 269 421 q 219 373 219 267 q 219 162 269 104 q 305 68 342 80 q 378 91 427 56 q 409 20 368 10 q 328 0 277 0 q 227 0 174 1 q 121 2 80 -10 z"},"Q":{"x_min":0,"x_max":699,"ha":699,"o":"m 411 -150 q 362 -125 304 -136 q 247 -146 188 -136 q 176 -100 180 -53 q 184 -7 172 41 q 85 87 47 202 q 8 317 -2 424 q 31 519 75 617 q 119 715 250 725 q 310 761 394 750 q 479 739 537 679 q 633 631 649 520 q 666 408 666 312 q 666 216 594 147 q 521 78 475 6 q 485 -52 536 -46 q 587 -40 634 -88 q 609 -148 547 -144 q 485 -140 427 -150 z m 314 121 l 330 121 q 402 133 457 160 q 512 187 537 247 q 563 332 566 414 q 570 496 523 569 q 461 615 378 636 q 294 657 236 631 q 164 584 131 490 q 99 396 121 312 q 135 239 195 186 q 255 133 314 121 z"},"w":{"x_min":0,"x_max":755,"ha":755,"o":"m 147 -13 q 107 118 73 260 q 38 403 -12 525 q 13 550 51 539 q 88 529 127 541 l 202 450 q 188 435 192 409 q 197 383 184 345 l 217 309 q 258 349 337 371 q 416 393 470 324 l 503 324 l 539 363 q 539 388 531 426 q 524 463 524 504 q 562 545 614 538 q 666 531 720 504 q 694 384 656 260 q 618 137 575 2 l 539 -13 l 503 -13 q 451 -13 435 35 q 420 83 379 110 q 337 110 309 83 q 281 56 256 2 q 240 -9 214 -5 q 188 -1 147 -13 z"},"-":{"x_min":0,"x_max":489,"ha":489,"o":"m 40 418 q 19 418 7 445 q -5 471 -5 495 q 97 540 201 521 q 305 502 418 525 l 466 449 q 414 420 363 418 q 311 416 258 422 q 206 428 151 431 q 97 435 40 418 z"},"E":{"x_min":0,"x_max":640,"ha":640,"o":"m 74 -12 q 61 -1 31 6 q 1 13 -9 49 q 103 175 87 347 q 71 518 5 679 q 61 729 128 736 q 195 743 267 735 q 338 728 412 719 q 485 711 554 731 l 604 679 q 604 666 604 642 q 604 619 604 582 l 554 534 q 518 546 503 581 q 488 617 437 631 q 387 644 328 635 q 269 626 207 612 l 171 550 q 171 524 184 492 q 198 461 221 451 q 260 451 299 462 q 337 474 387 451 q 401 411 415 372 q 429 333 406 285 q 369 257 329 276 q 290 295 240 285 q 226 285 211 253 q 197 222 171 185 l 190 118 q 252 81 316 89 q 380 97 454 85 q 493 97 509 136 q 526 176 587 199 q 610 152 610 108 q 610 64 587 1 q 474 -23 345 -12 q 216 -1 93 -12 z"},"s":{"x_min":0,"x_max":545,"ha":545,"o":"m 162 -10 q 126 13 76 10 q 25 6 0 56 l 0 117 l 34 133 q 95 121 151 90 q 208 59 292 68 q 326 68 350 98 q 373 129 373 166 q 349 208 285 223 q 222 237 159 256 q 95 274 50 313 q 5 351 18 442 q 103 525 226 533 q 349 542 471 505 l 503 442 l 452 375 q 422 388 385 406 q 347 423 310 431 q 272 438 238 428 q 204 418 180 375 q 209 339 266 328 q 323 318 379 302 q 436 287 478 252 q 520 217 520 133 q 520 98 487 52 q 454 5 403 5 q 354 -20 297 -9 q 239 1 180 -10 z"},">":{"x_min":0,"x_max":584,"ha":584,"o":"m 529 313 l 55 110 l 55 198 l 430 354 l 55 508 l 55 595 l 529 395 z"},"l":{"x_min":0,"x_max":471,"ha":471,"o":"m 242 -21 q 218 -3 186 -5 q 154 -6 121 -8 q 88 -10 57 -3 q 26 4 3 41 q 25 52 60 56 q 95 60 129 72 q 171 121 182 179 q 193 237 191 300 q 190 363 186 428 q 181 492 193 553 q 169 599 140 621 q 110 644 51 682 l 51 711 q 98 748 148 742 q 198 737 258 711 q 282 634 278 550 q 273 465 270 381 q 266 296 279 217 q 292 138 352 72 q 364 84 388 64 q 412 44 449 56 l 449 -8 q 402 -8 360 -14 q 318 -21 258 -21 z"},"8":{"x_min":0,"x_max":515,"ha":515,"o":"m 164 -14 q 103 10 63 49 q 24 88 -11 157 q 24 221 21 297 q 19 374 14 450 q 10 526 22 597 q 34 667 99 720 q 191 780 312 745 q 432 710 491 628 q 467 558 472 480 q 477 402 482 324 q 488 246 481 172 q 475 97 428 33 q 370 -2 308 -8 q 247 -14 178 -14 z m 209 81 l 223 81 q 258 81 283 81 q 308 81 319 81 q 353 103 371 151 q 390 200 365 236 q 343 283 286 297 q 229 311 193 299 q 146 277 128 250 q 111 224 99 188 q 111 143 143 112 q 175 81 209 81 z m 223 441 q 283 431 333 468 q 383 506 383 567 q 359 612 333 630 q 307 648 270 661 q 225 648 176 630 q 126 612 115 567 l 115 533 q 140 487 164 470 q 189 453 223 441 z"},"\\":{"x_min":0,"x_max":399,"ha":399,"o":"m 341 -10 q 256 160 146 357 q 36 554 -11 742 q 10 760 64 742 q 97 657 149 564 q 200 472 250 375 q 299 279 337 182 q 375 84 380 -10 z"},"e":{"x_min":0,"x_max":644,"ha":644,"o":"m 219 10 q 137 32 85 83 q 34 135 -1 230 q 11 288 26 376 q 42 464 124 498 q 207 536 309 539 q 410 542 507 482 q 529 460 561 422 q 592 383 614 326 q 614 302 603 272 q 591 242 566 230 q 520 224 465 231 q 411 238 357 241 q 302 245 251 234 q 199 224 158 183 q 168 98 244 93 q 320 87 378 87 q 412 87 467 95 q 522 103 566 103 l 584 55 q 501 -3 416 9 q 332 21 235 10 z m 219 326 l 235 326 q 296 337 337 328 q 379 319 423 355 l 410 418 q 350 454 286 438 q 223 423 187 389 l 187 355 z"},"b":{"x_min":0,"x_max":670,"ha":670,"o":"m 275 -10 q 218 11 158 2 q 98 -7 26 3 q 38 177 50 368 q 62 559 -18 720 q 3 745 37 735 q 71 725 104 738 q 151 679 148 607 q 146 534 215 487 q 295 522 413 500 q 530 477 589 393 q 625 336 631 260 q 638 183 603 113 q 557 42 463 9 q 369 -23 275 -10 z m 309 81 q 366 104 407 106 q 448 108 497 144 q 531 191 529 227 q 526 264 526 301 q 504 348 469 378 q 434 409 385 409 q 328 409 261 391 q 194 374 181 317 q 181 281 174 248 q 167 214 167 189 q 203 132 232 112 q 262 93 309 81 z"},"%":{"x_min":0,"x_max":501,"ha":501,"o":"m 282 -7 q 232 6 192 50 q 152 93 152 151 q 152 165 152 188 q 152 210 152 247 q 152 282 134 288 q 117 293 93 292 q 69 291 45 293 q 21 296 9 326 q 34 337 50 354 q 66 370 91 406 q 41 463 5 550 q -31 636 25 721 q 74 743 116 751 q 157 759 215 737 q 239 725 256 708 q 273 691 295 655 q 295 620 295 583 q 295 546 295 499 q 307 439 348 458 q 390 478 436 464 q 436 430 403 417 q 370 403 358 358 q 358 333 382 306 q 406 279 430 248 q 454 216 466 181 q 478 145 454 104 q 440 67 423 42 q 406 18 358 -7 z m 282 74 q 315 74 339 89 q 362 104 375 104 q 396 139 379 186 q 362 233 327 247 q 281 223 254 205 q 227 187 215 151 q 239 127 247 101 q 255 74 282 74 z m 91 531 l 104 531 q 140 544 167 541 q 193 539 215 562 q 204 596 208 621 q 211 645 200 655 l 138 689 l 75 655 q 51 620 65 587 q 79 554 91 531 z"},"m":{"x_min":0,"x_max":741,"ha":741,"o":"m 50 -17 l 19 -3 l 0 32 q 75 129 50 249 q 25 368 0 490 q 162 527 336 529 q 510 531 659 457 q 632 347 669 234 q 706 121 706 -3 q 694 -3 670 -3 q 646 -3 609 -3 q 565 34 569 87 q 574 140 585 197 q 596 254 592 310 q 588 365 527 408 l 491 408 q 441 395 414 326 q 387 257 414 195 q 399 147 443 120 q 487 94 475 32 q 404 -18 314 32 q 301 75 309 125 q 318 175 322 226 q 327 277 314 324 q 301 371 246 408 q 186 395 165 334 q 145 273 132 211 q 132 174 160 127 q 188 80 215 32 q 203 -4 151 -11 q 100 -17 50 -17 z"},"#":{"x_min":0,"x_max":377,"ha":377,"o":"m 81 76 l 61 86 q 53 139 48 187 q 42 234 -12 281 q -3 303 25 313 q 53 324 61 363 q 53 386 39 400 q 25 414 9 445 q 1 476 32 488 q 63 500 72 539 q 72 562 76 601 q 80 639 102 662 l 144 651 q 159 627 152 604 q 146 580 154 547 l 185 517 q 215 521 220 537 q 226 552 224 573 q 223 595 226 618 q 229 642 256 662 l 299 651 q 291 605 306 553 q 320 501 359 456 q 352 440 341 429 q 331 418 308 404 q 293 382 304 349 q 315 317 339 300 q 292 210 246 76 l 204 96 q 204 120 200 143 q 195 167 195 198 l 164 231 q 141 222 135 201 q 129 180 126 156 q 124 132 116 109 q 108 87 81 76 z m 164 363 q 179 348 183 374 q 188 399 164 385 z"},",":{"x_min":0,"x_max":143,"ha":143,"o":"m 24 -108 q 7 -59 20 -11 q 32 36 57 85 q 63 93 80 90 q 96 87 122 96 q 136 47 105 -11 q 74 -68 34 -108 z"},"n":{"x_min":0,"x_max":606,"ha":606,"o":"m 51 -23 l -16 8 q 49 122 38 255 q 26 387 3 515 q 117 529 233 532 q 348 536 476 498 q 552 397 557 258 q 563 118 578 -9 q 550 -9 514 -9 q 478 -9 439 -9 q 434 36 445 86 q 457 136 467 188 q 476 239 474 292 q 472 344 439 396 q 439 408 408 424 q 376 440 340 463 q 276 450 206 408 q 136 366 136 279 q 113 215 145 150 q 176 85 187 8 q 164 -16 136 -14 q 109 -12 71 -23 z"},"h":{"x_min":0,"x_max":614,"ha":614,"o":"m 472 -28 l 406 23 q 441 107 464 197 q 486 286 437 383 q 426 408 375 431 q 324 455 274 433 q 202 408 177 325 q 153 243 128 169 q 139 121 171 94 q 204 68 192 6 q 155 -20 116 -9 q 77 2 29 -10 l -3 40 q 59 200 51 383 q 42 565 -17 727 q 32 753 112 727 q 124 704 133 668 q 143 633 143 595 q 157 570 173 554 q 190 539 228 512 q 263 512 302 514 q 341 516 387 529 q 474 516 507 435 q 540 354 554 268 q 540 206 562 143 q 585 81 585 6 q 574 6 549 -11 q 523 -28 486 -28 z"},"z":{"x_min":0,"x_max":529,"ha":529,"o":"m 76 -12 l 8 23 q -3 79 22 120 q 48 160 87 196 q 126 232 168 270 q 209 308 228 358 q 228 371 222 400 q 215 429 177 438 q 154 429 117 414 q 81 398 45 375 l 8 390 q -3 402 0 427 q 4 451 -8 489 q 30 526 81 535 q 132 543 190 540 q 249 538 310 533 q 371 529 428 542 l 479 489 q 455 391 381 343 q 308 295 245 207 q 245 168 253 142 q 261 115 312 88 q 348 101 388 113 q 428 125 479 125 q 504 96 479 23 q 379 -14 284 -7 q 190 0 76 -12 z"},"B":{"x_min":0,"x_max":686,"ha":686,"o":"m 116 -19 q 91 4 65 -1 q 39 -6 0 29 q 76 167 69 357 q 62 547 0 698 q 123 736 251 733 q 379 731 517 679 q 572 642 583 588 q 595 534 595 472 q 596 410 602 343 q 608 276 653 213 q 653 199 653 175 q 653 150 653 113 q 614 56 554 33 q 493 10 422 2 q 352 -5 276 -6 q 201 -7 132 -19 z m 351 79 l 365 79 q 417 119 469 107 q 521 96 533 146 q 533 182 518 208 q 502 234 502 245 q 437 283 377 282 q 317 281 267 281 q 229 266 212 228 q 195 190 183 180 l 216 113 q 254 87 289 96 q 324 104 351 79 z m 267 413 q 303 413 338 421 q 374 429 399 429 q 438 454 454 471 q 470 488 483 514 l 483 581 l 452 612 q 387 626 327 624 q 267 623 216 598 q 191 561 200 535 q 208 509 183 497 q 208 460 225 443 q 242 425 267 413 z"},"K":{"x_min":0,"x_max":702,"ha":702,"o":"m 64 -21 l -3 31 q 70 170 64 361 q 58 552 -3 703 q 20 741 83 733 q 146 725 197 734 l 248 686 q 235 686 221 654 q 207 623 180 584 q 180 559 193 528 q 205 498 231 483 q 289 483 326 532 q 363 581 400 634 q 438 688 487 724 q 536 760 618 734 l 651 686 q 613 610 541 566 q 468 521 417 435 q 440 333 505 223 q 569 113 668 62 l 668 -2 q 645 -29 594 -10 q 543 10 516 48 q 479 137 431 202 q 382 268 279 318 q 255 304 224 289 q 192 274 180 251 q 157 188 202 139 q 248 90 248 14 q 209 1 170 -3 q 131 -7 79 -21 z"},"R":{"x_min":0,"x_max":744,"ha":744,"o":"m 25 -9 l -8 7 q 68 135 59 273 q 50 412 75 556 q 50 566 33 609 q 17 652 -8 691 l 8 723 q 135 737 286 736 q 438 734 554 659 q 592 618 599 526 q 605 435 554 381 q 504 310 554 211 q 580 172 626 139 q 672 105 709 44 l 691 7 l 623 7 q 534 72 463 157 q 393 243 264 280 q 186 280 158 177 q 158 138 190 110 q 221 81 249 44 l 229 7 q 176 -18 132 -7 q 88 3 25 -9 z m 264 401 q 315 401 355 418 q 395 435 436 435 q 459 448 472 480 q 485 512 485 536 q 461 574 444 592 q 427 609 399 622 q 334 635 290 624 q 246 613 195 587 q 167 524 189 469 q 212 414 264 401 z"},"T":{"x_min":0,"x_max":633,"ha":633,"o":"m 178 -9 l 110 40 q 124 77 186 93 q 248 109 258 169 q 258 271 256 362 q 254 454 244 563 l 178 613 l 110 597 q 99 572 82 531 q 64 491 29 464 q -7 491 0 552 q 6 613 -5 663 q 51 718 120 732 q 189 747 265 742 q 341 737 419 723 q 498 710 572 710 q 595 664 599 604 q 603 543 603 483 l 572 464 q 547 501 532 545 q 518 588 454 613 q 431 613 400 601 q 370 588 357 563 q 345 441 344 289 q 343 137 454 40 q 394 3 322 9 q 250 15 178 -9 z"},"P":{"x_min":0,"x_max":644,"ha":644,"o":"m 63 -21 l -4 10 q 98 164 74 362 q 50 561 12 728 q 141 728 261 744 q 382 761 521 708 q 573 658 593 569 q 613 479 573 402 q 547 344 497 322 q 448 300 391 289 q 334 278 278 266 q 222 254 184 216 l 184 147 q 184 96 239 85 q 294 74 318 10 q 267 -14 196 -6 q 125 2 63 -21 z m 250 370 l 267 370 q 305 370 330 370 q 355 370 370 370 l 473 453 q 473 519 458 559 q 442 599 404 625 q 353 625 313 636 q 273 648 235 625 l 184 556 q 184 504 192 444 q 200 383 250 370 z"},"|":{"x_min":0,"x_max":348,"ha":348,"o":"m 173 -68 q 164 122 141 346 q 119 571 151 762 q 177 771 220 732 q 216 641 226 536 q 236 430 243 322 q 250 214 246 110 q 242 5 209 -83 z"},"t":{"x_min":0,"x_max":589,"ha":589,"o":"m 250 -14 q 213 10 173 24 q 132 39 105 100 q 119 210 98 301 q 77 391 -9 491 q 3 527 40 541 q 77 555 89 603 q 89 615 96 644 q 102 672 141 685 q 200 611 261 560 q 322 509 433 521 l 479 474 q 449 456 410 451 q 372 447 332 441 q 292 435 255 418 q 217 401 187 357 q 187 297 185 235 q 183 173 220 100 q 293 51 377 75 q 460 100 545 100 l 562 65 q 543 23 508 12 q 474 1 431 2 q 388 2 341 3 q 294 4 250 -14 z"},"M":{"x_min":0,"x_max":814,"ha":814,"o":"m 52 -17 l 19 -2 q 19 80 32 162 q 46 244 52 328 q 58 411 47 496 q 35 581 -15 668 q -15 682 6 710 q 27 738 52 738 q 64 738 91 738 q 118 738 156 738 q 203 685 241 585 q 280 485 356 436 l 388 436 q 433 448 457 489 q 480 531 501 580 q 521 628 547 674 q 572 719 622 738 q 634 738 660 738 q 686 738 728 738 l 776 687 q 687 522 711 356 q 736 189 759 14 q 708 -9 655 -13 q 601 -17 540 33 q 551 64 572 104 q 592 144 605 187 q 617 231 613 277 q 609 323 571 369 l 508 349 q 495 326 479 289 q 463 253 438 217 q 413 190 339 217 q 314 253 291 298 q 267 343 204 369 l 170 349 q 145 273 160 187 q 175 100 235 48 q 235 37 215 10 q 195 -17 170 -17 q 159 -17 133 -17 q 107 -17 69 -17 z"},"g":{"x_min":0,"x_max":632,"ha":632,"o":"m 166 -272 l 152 -237 q 176 -190 239 -188 q 301 -185 361 -175 l 426 -126 l 444 -93 q 444 -69 431 -39 q 417 -10 393 3 q 295 -22 190 -2 q 84 18 22 117 q -24 201 5 314 q 34 427 120 489 q 227 537 355 515 q 483 493 602 505 q 565 346 569 187 q 572 27 523 -140 q 487 -239 383 -255 q 280 -272 185 -272 z m 201 83 l 215 83 q 277 83 331 106 q 385 129 410 166 q 421 213 424 251 q 426 290 426 326 l 347 424 q 298 424 260 424 q 221 424 185 424 q 148 399 127 350 q 105 300 105 264 q 105 190 123 149 q 140 108 201 83 z"},"j":{"x_min":0,"x_max":428,"ha":428,"o":"m 42 -268 l 11 -235 l 24 -207 q 93 -193 174 -186 q 255 -179 300 -99 q 300 4 310 124 q 319 244 285 359 q 256 387 223 391 q 190 396 156 396 q 121 396 87 401 q 53 405 24 434 l 42 467 q 109 488 188 484 q 267 480 346 480 l 408 405 q 384 330 390 241 q 396 153 396 64 q 396 -25 373 -107 q 350 -190 270 -252 q 225 -264 168 -266 q 112 -268 57 -268 z m 221 625 l 292 732 q 357 692 341 641 q 325 590 221 625 z"},"i":{"x_min":0,"x_max":479,"ha":479,"o":"m 34 -21 l -15 14 q -2 61 53 68 q 109 76 132 125 q 132 157 143 195 q 154 233 158 271 q 163 309 153 344 q 143 378 102 403 q 102 427 54 439 q 6 452 20 500 q 42 523 78 516 q 113 508 148 531 q 203 506 223 461 q 243 416 247 361 q 251 306 250 248 q 250 190 263 142 l 326 76 q 352 76 386 72 q 421 68 456 46 l 456 14 q 358 -12 250 -4 q 143 5 34 -21 z m 160 615 l 125 685 q 138 724 165 718 q 193 712 210 689 q 227 667 220 641 q 214 615 160 615 z"},"y":{"x_min":0,"x_max":678,"ha":678,"o":"m 77 -262 l 30 -213 q 91 -178 165 -158 q 239 -139 239 -55 q 251 18 224 92 q 197 167 155 238 q 113 310 67 375 q 22 440 -2 495 q 46 508 89 528 q 131 548 193 513 q 193 426 200 339 q 207 253 304 204 l 337 204 q 433 239 436 332 q 438 426 451 513 q 487 536 526 526 q 564 517 611 527 l 646 476 q 559 368 477 211 q 396 55 337 -102 q 337 -128 361 -162 q 386 -195 386 -232 q 337 -281 253 -260 q 168 -239 95 -262 z"},"@":{"x_min":0,"x_max":524,"ha":524,"o":"m 212 56 q 148 86 83 123 q 17 159 8 248 q -21 303 -1 375 q 19 446 52 502 q 91 574 181 598 q 271 622 351 598 q 469 581 500 448 q 500 400 496 329 q 492 258 437 225 q 412 193 381 188 q 350 184 316 187 q 282 189 248 191 q 213 192 181 172 l 170 153 q 194 110 249 108 q 303 105 351 96 q 390 96 403 129 q 417 162 458 162 l 467 141 q 436 77 361 70 q 287 63 224 56 z m 224 235 q 264 263 276 289 q 284 329 291 372 q 297 415 267 439 l 244 439 q 229 415 210 395 q 192 375 192 352 q 176 322 184 283 q 191 244 224 235 z m 383 269 l 403 269 q 428 284 439 294 q 450 305 458 321 q 465 361 459 409 q 454 456 414 480 q 391 425 387 370 q 383 316 383 269 z m 64 332 q 83 408 122 440 q 160 473 205 486 q 250 499 294 505 q 339 511 371 536 q 332 574 280 563 q 228 552 181 545 q 165 497 131 483 q 97 470 74 439 q 74 407 69 381 q 64 355 64 332 z"},".":{"x_min":0,"x_max":118,"ha":118,"o":"m 29 -11 l 2 4 l -11 31 q -11 51 -1 78 q 9 104 29 117 l 58 117 q 68 117 90 99 q 113 81 113 58 l 113 31 q 113 21 87 5 q 61 -11 29 -11 z"},"p":{"x_min":0,"x_max":724,"ha":724,"o":"m 43 -284 l -4 -236 q 45 -168 61 -91 q 77 -14 76 66 q 75 147 66 230 q 58 312 58 393 q 47 393 29 424 q 10 455 10 493 q 147 519 286 529 q 425 539 575 476 q 636 440 663 372 q 690 303 690 228 q 665 155 614 98 q 562 41 475 30 q 425 4 365 15 q 304 25 244 11 l 177 -67 q 164 -133 219 -170 q 275 -207 275 -270 q 225 -295 165 -284 q 106 -273 43 -284 z m 344 113 l 358 113 q 408 126 463 140 q 518 153 556 180 q 556 216 556 251 q 556 287 556 312 q 531 361 499 381 q 467 401 442 429 q 368 429 319 413 q 271 397 208 362 q 208 324 201 287 q 193 251 193 228 q 217 165 260 151 q 304 137 344 113 z"},"X":{"x_min":0,"x_max":710,"ha":710,"o":"m 47 -15 q 21 -15 8 14 q -6 43 -6 70 q 70 110 134 191 q 197 273 250 377 q 211 478 150 541 q 89 605 13 682 l 47 748 q 83 748 124 748 q 164 748 215 748 q 279 737 258 691 q 237 646 250 594 l 318 531 q 329 531 355 540 q 381 550 418 563 q 445 586 434 623 q 422 659 435 697 l 487 748 q 525 748 581 751 q 636 754 677 714 l 677 682 q 650 644 612 612 q 574 581 539 546 q 504 512 479 468 q 455 424 455 360 q 473 309 505 272 q 537 236 570 201 q 604 166 634 124 q 663 83 677 21 q 624 6 579 -8 q 534 -22 472 1 q 465 27 467 62 q 469 98 464 133 q 459 168 439 197 q 419 226 369 238 q 305 238 262 184 q 220 129 233 53 l 147 -15 q 134 -15 109 -15 q 83 -15 47 -15 z"},"*":{"x_min":0,"x_max":345,"ha":345,"o":"m 229 395 q 204 395 199 414 q 194 433 162 441 q 137 441 110 424 q 83 406 49 406 q 33 433 45 459 q 57 486 49 519 q 33 526 25 542 q 17 558 -17 576 l -17 598 q 32 606 74 645 q 116 684 150 743 q 191 734 191 706 q 192 677 216 643 q 233 626 257 633 q 281 640 307 630 l 329 576 q 320 567 300 545 q 279 523 263 508 q 263 483 271 457 q 279 430 263 395 z"},"Y":{"x_min":0,"x_max":654,"ha":654,"o":"m 146 -15 l 114 53 q 150 79 194 94 q 237 109 263 173 q 270 256 238 327 q 206 398 159 464 q 113 529 65 591 q 17 653 -8 717 q 30 731 71 747 q 111 762 163 736 q 182 709 186 676 q 189 642 194 608 q 199 575 212 544 q 225 514 263 494 q 276 494 303 497 q 330 499 368 514 q 405 565 403 609 q 400 654 400 717 q 452 731 496 741 q 541 751 604 751 l 623 685 q 608 646 560 613 q 511 581 486 533 q 473 494 441 442 q 409 389 385 333 q 361 277 358 222 q 355 167 400 125 q 400 97 449 84 q 499 71 486 21 q 409 -5 321 -10 q 233 -15 146 -15 z"},"c":{"x_min":0,"x_max":629,"ha":629,"o":"m 237 -23 q 178 -1 108 26 q 39 54 29 151 q 5 163 13 187 q 21 211 -3 246 q 9 306 41 353 q 73 399 110 472 q 205 498 311 511 q 416 525 525 489 q 562 476 581 428 q 600 379 574 343 l 544 327 q 483 401 374 418 q 265 436 158 375 q 134 329 122 286 q 110 244 110 182 q 139 116 193 85 q 247 55 311 49 q 376 43 445 55 q 514 68 574 87 l 590 55 q 531 -18 433 -15 q 335 -13 237 -23 z"},"!":{"x_min":0,"x_max":175,"ha":175,"o":"m 77 -31 l 49 -14 l 49 47 l 77 60 l 121 30 q 134 18 111 -7 q 88 -31 77 -31 z m 77 213 q 31 315 3 454 q -25 592 32 730 l 62 743 l 92 743 q 129 726 167 669 q 167 566 157 441 q 148 315 92 213 z"},"/":{"x_min":0,"x_max":396,"ha":396,"o":"m 27 -19 l -11 19 q 63 188 147 382 q 232 577 325 744 l 377 744 q 373 646 337 553 q 301 460 254 369 q 207 277 157 185 q 107 92 75 -6 z"},"[":{"x_min":0,"x_max":278,"ha":278,"o":"m 68 -199 l 68 716 l 262 716 l 262 643 l 156 643 l 156 -126 l 262 -126 l 262 -199 z"},"6":{"x_min":0,"x_max":514,"ha":514,"o":"m 149 -12 q 34 46 10 194 q -13 341 9 470 q 22 551 80 605 q 138 659 196 716 q 243 716 313 740 q 384 765 429 716 q 411 694 369 680 q 328 667 281 648 q 235 629 194 599 q 153 570 136 517 l 149 455 q 220 443 309 433 q 398 422 447 327 q 458 270 474 198 q 489 126 429 82 q 405 -2 320 -2 q 235 -2 165 -12 z m 212 82 q 269 82 320 104 q 372 126 382 173 q 372 209 375 233 q 378 256 369 269 q 343 312 297 320 q 251 327 230 327 q 169 317 150 278 q 131 239 118 204 q 118 157 147 119 q 177 82 212 82 z"},"r":{"x_min":0,"x_max":555,"ha":555,"o":"m 45 -12 l -17 36 q 42 73 85 159 q 128 245 92 343 q 106 379 72 399 q 37 419 13 454 l 13 489 q 61 512 114 509 q 168 506 224 500 q 280 494 337 498 q 395 501 450 538 l 515 503 l 529 440 q 457 428 364 418 q 271 408 224 310 q 212 273 198 235 q 185 197 208 150 q 219 118 247 108 q 274 97 307 91 q 339 85 370 75 q 401 65 419 36 l 401 3 q 315 -8 230 2 q 145 12 45 -12 z"},"2":{"x_min":0,"x_max":541,"ha":541,"o":"m 66 -9 q 56 0 29 8 q 2 16 -9 51 q 14 133 84 187 q 155 241 229 294 q 302 348 358 415 q 413 483 407 593 q 385 606 333 649 q 280 691 222 658 q 200 645 161 629 q 123 613 100 578 l 66 578 q 31 613 69 661 q 107 710 130 733 q 210 755 310 740 q 410 726 469 658 q 515 623 492 523 q 469 424 424 375 q 389 305 323 265 q 257 226 222 144 l 251 84 q 299 49 355 75 q 410 102 469 68 l 453 4 q 373 4 274 2 q 175 0 82 -9 z"},"{":{"x_min":0,"x_max":217,"ha":217,"o":"m 116 -16 q 68 17 59 64 q 50 112 49 163 q 47 214 40 263 q 33 313 -10 351 q 28 390 35 444 q 42 498 46 554 q 49 610 63 662 q 78 713 130 748 q 148 748 172 749 q 195 751 207 723 q 110 580 130 414 q 149 248 167 84 q 167 75 180 55 q 192 36 192 8 q 192 -21 168 -13 q 145 -6 116 -16 z"},"9":{"x_min":0,"x_max":487,"ha":487,"o":"m 96 -12 q 85 1 58 9 q 31 17 21 52 q 67 86 115 88 q 164 89 222 111 q 243 123 259 139 q 274 155 296 188 l 281 250 q 211 262 134 279 q 56 296 21 387 q -12 458 -3 542 q 5 626 50 696 q 98 742 173 751 q 248 759 328 725 q 420 668 442 542 q 464 416 464 312 q 454 173 352 92 q 250 11 114 -12 z m 188 374 l 250 374 q 308 409 330 478 q 353 547 328 603 l 268 649 q 233 638 200 648 q 167 659 145 634 l 96 574 q 96 515 114 449 q 132 384 188 374 z"}," ":{"x_min":0,"x_max":492,"ha":492,"o":""},"I":{"x_min":0,"x_max":455,"ha":455,"o":"m 152 -12 q 125 15 82 8 q 39 1 1 41 q 12 76 75 93 q 138 110 152 175 q 158 231 168 297 q 179 363 177 428 q 176 494 152 554 q 129 614 66 659 q 55 659 26 665 q -3 671 -17 707 q 83 730 208 738 q 334 745 433 707 q 408 689 369 660 q 330 632 295 592 q 261 553 241 502 q 221 451 234 388 q 234 341 257 280 q 280 219 268 156 q 268 112 286 105 q 304 98 329 98 q 354 98 379 91 q 403 83 416 41 q 354 -11 298 -4 q 242 2 167 -12 z"},"H":{"x_min":0,"x_max":617,"ha":617,"o":"m 55 -17 l 19 1 q 19 83 31 165 q 43 247 48 330 q 54 413 43 498 q 33 583 -12 671 q 11 732 77 736 q 143 740 207 703 q 207 640 161 592 q 116 545 139 470 q 175 419 243 417 q 311 415 372 402 l 439 470 q 451 518 426 579 q 401 640 389 703 q 412 740 475 733 q 537 726 588 703 q 564 539 558 375 q 552 211 588 35 q 588 -4 558 9 q 527 22 489 -17 q 464 9 432 3 q 401 -4 389 35 q 401 85 435 128 q 468 171 456 234 q 429 261 390 296 q 351 332 291 321 q 238 321 200 287 q 163 253 139 201 q 139 177 159 135 q 179 93 207 66 l 187 1 q 164 -25 129 -14 q 95 -3 55 -17 z"},"4":{"x_min":0,"x_max":497,"ha":497,"o":"m 310 -15 l 247 0 q 220 25 229 60 q 238 95 211 132 q 188 150 156 154 q 125 158 93 164 q 61 170 33 186 q 5 202 -12 244 q 23 298 57 386 q 90 474 134 557 q 179 639 240 697 q 302 754 394 747 q 431 601 422 462 q 414 322 473 163 q 473 140 473 105 q 473 71 473 34 q 450 -16 404 -10 q 358 -4 310 -15 z m 200 279 l 310 340 q 299 377 309 414 q 318 450 295 474 l 230 474 q 207 424 178 363 q 148 302 200 279 z"},"~":{"x_min":0,"x_max":584,"ha":584,"o":"m 42 272 l 42 372 q 94 431 178 431 q 208 431 240 422 q 272 414 332 388 q 365 374 382 370 q 399 365 416 365 q 448 365 482 384 q 516 403 542 432 l 542 329 q 511 299 479 286 q 447 273 407 273 q 377 273 351 280 q 324 287 266 312 q 208 338 170 338 q 139 338 111 325 q 83 312 42 272 z"},"D":{"x_min":0,"x_max":709,"ha":709,"o":"m 40 -13 l 8 21 q 59 187 57 357 q 55 527 -9 708 q 94 747 245 735 q 396 724 540 671 q 617 608 646 476 q 676 344 626 228 q 626 163 598 120 q 569 76 503 36 q 401 -27 289 -7 q 176 12 60 -13 z m 284 72 l 298 72 q 402 72 467 142 q 533 212 572 279 q 572 368 527 468 q 482 567 419 604 q 354 643 292 627 q 230 611 180 587 q 180 471 174 358 q 167 245 180 142 q 191 115 223 100 q 256 85 284 72 z"},"^":{"x_min":0,"x_max":578,"ha":578,"o":"m 9 367 q -6 380 -1 407 q 4 434 -11 473 q 57 526 102 614 q 147 702 251 755 q 345 702 409 623 q 473 543 550 438 q 550 425 528 396 q 506 367 480 367 q 441 374 418 402 q 395 430 372 462 q 349 493 320 518 q 290 543 238 543 q 211 537 192 508 q 173 480 151 448 q 129 417 101 392 q 72 367 27 367 z"},"0":{"x_min":0,"x_max":496,"ha":496,"o":"m 195 -16 q 113 7 65 90 q 18 172 -4 264 q -4 380 5 519 q 15 657 119 726 q 166 761 222 758 q 277 755 333 743 q 451 662 461 509 q 472 357 472 217 q 438 125 368 55 q 298 -16 195 -16 z m 195 108 q 254 98 304 132 q 354 167 366 202 q 413 415 366 604 q 331 652 278 651 q 226 650 182 650 q 122 604 102 533 q 83 462 72 404 q 83 320 98 227 q 113 133 195 108 z"},"F":{"x_min":0,"x_max":664,"ha":664,"o":"m 21 -14 l -14 21 q 62 134 62 274 q 62 415 88 551 q 76 576 40 623 q 5 670 5 720 q 153 743 296 733 q 438 723 601 732 q 625 708 623 674 q 622 640 632 601 l 570 551 q 570 588 534 592 q 499 596 484 634 q 436 634 376 634 q 315 634 253 634 l 186 584 q 163 546 185 489 q 207 432 270 419 q 294 419 330 445 q 365 470 403 470 q 426 419 426 376 q 426 332 403 271 q 365 259 342 277 q 319 295 270 322 l 203 303 q 203 284 155 203 q 167 179 181 148 q 194 117 220 104 q 245 104 271 98 q 298 92 336 55 l 336 21 q 259 -18 185 -9 q 111 0 36 -14 z"},"`":{"x_min":0,"x_max":333,"ha":333,"o":"m 227 583 l 156 583 l 43 720 l 161 720 z"},"k":{"x_min":0,"x_max":605,"ha":605,"o":"m 29 -12 l 13 20 q 49 140 65 291 q 82 442 47 598 q 47 634 15 657 q -17 679 -17 728 q 5 750 39 740 q 73 731 109 742 q 145 712 149 669 q 152 626 151 580 q 149 533 156 487 q 163 441 205 406 q 253 418 309 472 q 365 527 450 501 l 496 453 q 478 423 448 402 q 419 381 390 359 q 362 336 341 307 q 320 277 320 230 q 396 125 561 50 l 577 -12 q 528 -12 486 -12 q 443 -12 385 -12 q 348 12 332 60 q 315 108 253 131 l 190 131 q 156 119 159 79 q 162 39 125 4 q 113 -8 89 -4 q 65 0 29 -12 z"},"u":{"x_min":0,"x_max":684,"ha":684,"o":"m 214 -11 q 89 40 64 189 q 64 252 55 334 q 47 416 -3 494 l 11 525 q 25 538 51 533 q 76 529 112 542 q 150 504 156 453 q 163 402 161 344 q 160 286 163 225 q 167 164 199 107 q 250 70 311 84 q 372 98 432 122 q 446 122 461 153 q 476 185 501 223 q 501 312 462 375 q 423 438 400 525 q 413 538 438 533 q 463 529 501 542 q 551 511 566 466 q 580 421 579 370 q 577 320 570 268 q 562 216 569 172 q 580 134 604 112 q 628 90 651 39 q 577 -24 453 -11 q 330 1 214 -11 z"},"]":{"x_min":0,"x_max":278,"ha":278,"o":"m 213 -199 l 19 -199 l 19 -126 l 125 -126 l 125 643 l 19 643 l 19 716 l 213 716 z"},"U":{"x_min":0,"x_max":704,"ha":704,"o":"m 283 -11 q 191 27 132 75 q 72 124 45 224 q 45 336 25 470 q 6 604 -8 729 q 31 756 72 745 q 112 733 161 748 l 212 697 q 125 597 129 462 q 133 328 145 190 q 157 128 222 99 q 287 71 351 71 q 399 71 439 115 q 479 160 518 224 q 518 336 520 459 q 522 582 433 697 l 450 729 q 490 729 529 738 q 568 748 618 748 l 671 697 q 613 614 612 510 q 610 406 607 306 q 604 207 570 125 q 537 43 416 5 q 391 -21 356 -10 q 321 1 283 -11 z"},"o":{"x_min":0,"x_max":633,"ha":633,"o":"m 254 -18 q 168 -6 99 36 q 30 79 -4 175 q -18 260 16 348 q 49 437 121 498 q 196 524 279 531 q 362 539 449 514 q 495 478 549 398 q 604 319 593 224 q 593 138 522 81 q 451 24 365 12 q 353 -10 329 -3 q 304 4 268 -18 z m 254 93 l 268 93 q 329 93 398 112 q 467 130 479 193 q 479 228 488 262 q 496 296 496 321 q 460 406 371 421 q 282 435 221 435 q 91 379 91 270 q 103 198 147 159 q 191 120 254 93 z"},"N":{"x_min":0,"x_max":685,"ha":685,"o":"m 40 -12 l 4 2 q 31 178 54 353 q 78 527 -7 701 q 28 715 67 729 q 106 744 155 720 q 192 670 223 608 q 254 547 291 491 q 327 435 374 392 q 420 350 490 337 q 527 423 521 515 q 515 606 440 667 l 440 701 q 488 753 541 739 q 593 724 653 737 q 623 649 623 549 q 623 450 624 352 q 625 253 615 163 q 604 72 555 2 q 493 27 457 79 q 420 130 389 188 q 358 247 321 301 q 285 356 222 388 l 191 388 q 153 362 144 317 q 135 271 146 221 q 156 171 182 125 q 208 79 241 53 l 241 19 q 214 -16 152 -9 q 90 -1 40 -12 z"},"+":{"x_min":0,"x_max":489,"ha":489,"o":"m 40 321 q 19 321 7 347 q -5 374 -5 397 q 97 442 201 423 q 305 404 418 427 l 466 351 q 414 322 363 320 q 311 318 258 324 q 206 330 151 334 q 97 337 40 321 z m 176 560 q 176 581 202 593 q 229 604 252 604 q 298 503 279 398 q 261 294 284 181 l 208 133 q 179 185 177 237 q 175 288 180 341 q 186 394 189 448 q 193 502 176 560 z"},"G":{"x_min":0,"x_max":671,"ha":671,"o":"m 272 -15 q 186 23 111 71 q 36 119 0 230 q -14 349 12 486 q 39 623 157 696 q 255 745 376 739 q 497 733 595 696 q 621 674 610 639 q 599 604 611 569 l 543 550 q 521 587 440 630 q 360 672 289 650 q 240 636 177 588 q 114 541 78 456 q 78 382 82 287 q 85 192 157 133 q 231 95 341 88 q 451 80 498 164 q 498 213 437 230 q 375 246 352 293 q 388 341 461 321 q 534 301 595 328 q 630 314 635 291 q 640 268 632 239 q 625 210 615 178 q 604 146 611 117 q 574 30 465 13 q 356 -3 272 -15 z"},"q":{"x_min":0,"x_max":702,"ha":702,"o":"m 424 -272 l 391 -256 q 391 -194 443 -172 q 496 -149 521 -75 q 508 -50 493 -20 q 479 11 454 23 q 357 11 222 27 q 87 43 15 155 q -7 229 8 330 q 23 432 95 481 q 162 517 230 525 q 298 532 367 529 q 436 526 507 521 q 578 517 652 528 q 640 449 625 354 q 610 259 605 159 q 601 60 613 -39 q 625 -137 668 -223 l 652 -256 q 602 -279 543 -270 q 484 -260 424 -272 z m 259 120 l 275 120 q 325 120 364 139 q 403 158 438 169 q 475 220 474 258 q 473 296 473 333 q 436 407 362 420 q 289 432 229 432 q 165 407 130 362 q 95 317 95 268 q 121 193 165 170 q 209 146 259 120 z"},"d":{"x_min":0,"x_max":689,"ha":689,"o":"m 182 0 q 34 43 9 219 q -4 303 29 365 q 62 428 136 488 q 136 525 165 512 q 194 500 231 538 q 276 512 334 522 q 392 533 452 521 l 482 583 q 482 619 456 640 q 431 661 420 710 l 482 758 q 494 758 517 748 q 540 737 577 727 q 590 643 588 554 q 586 466 588 376 q 589 287 602 199 q 615 111 657 28 q 551 -7 425 1 q 299 9 182 0 z m 277 92 l 291 92 q 338 92 388 112 q 438 132 452 156 q 438 189 466 223 q 494 257 482 283 q 446 341 415 383 q 384 424 325 424 q 284 448 253 438 q 222 428 198 404 q 174 380 155 353 q 136 326 118 315 q 106 255 116 213 q 126 171 150 124 q 186 100 219 108 q 253 116 277 92 z"},"1":{"x_min":0,"x_max":438,"ha":438,"o":"m 37 -15 l -13 33 q -13 43 18 62 q 48 82 83 82 q 143 117 161 170 q 179 224 177 287 q 175 350 166 416 q 157 482 163 542 q 151 569 135 584 q 119 600 83 625 l 21 639 l 37 704 q 71 704 109 721 q 147 738 196 752 q 208 752 235 732 q 262 711 262 688 q 272 557 254 406 q 235 256 308 111 q 332 99 370 89 q 408 80 418 33 q 335 -28 240 -16 q 146 -4 53 -15 z"},"5":{"x_min":0,"x_max":515,"ha":515,"o":"m 150 -17 q 115 -4 66 6 q 17 15 -6 61 q 29 90 88 85 q 146 80 208 77 q 269 74 322 92 q 375 110 398 186 q 422 209 410 243 q 398 276 398 311 q 387 333 371 348 q 355 364 320 387 q 273 400 217 394 q 160 387 104 387 q 8 447 21 549 q 33 650 59 729 q 127 754 206 744 q 285 734 367 747 l 414 700 q 366 678 310 675 q 254 671 195 671 q 171 658 156 626 q 142 595 117 560 q 158 519 215 508 q 272 497 328 482 q 383 467 428 433 q 473 398 490 311 q 490 254 474 171 q 457 88 398 32 q 340 -5 280 -11 q 221 -17 150 -17 z"}}}
